<svg xmlns="http://www.w3.org/2000/svg" width="273" height="272" viewBox="0 0 273 272">
    <g fill="none" fill-rule="evenodd">
        <g fill="#AF2D2E" fill-rule="nonzero">
            <g>
                <path d="M140.122 271.337c.266-.024.482-.119.65-.284.166-.165.278-.346.335-.544l1.637-5.707 10.246-.927 2.634 5.32c.104.205.248.369.43.491.183.123.412.172.688.147l2.39-.216-11.197-22.009-3.14.284-7.063 23.661 2.39-.216zm11.805-9.615l-8.525.771 2.746-9.598c.082-.286.161-.617.24-.994.078-.376.156-.788.233-1.234.301.84.595 1.537.88 2.09l4.426 8.965zm22.188 4.286l2.8-24.6-2.404.675c-.257.072-.452.207-.584.405-.133.197-.21.394-.234.589l-1.835 17.316c-.046.39-.065.805-.058 1.246.008.441.027.896.059 1.363-.237-.41-.472-.804-.706-1.181-.233-.378-.47-.721-.712-1.03l-10.612-13.822c-.14-.182-.31-.317-.512-.405-.202-.087-.436-.093-.703-.018l-2.388.67 15.194 19.549 2.695-.757zm14.38-4.544c.237-.12.404-.287.499-.502.095-.215.133-.425.113-.63l-.571-5.91 9.192-4.62 4.402 3.983c.172.152.365.252.58.299.215.047.446.008.694-.116l2.144-1.078-18.49-16.367-2.816 1.416 2.108 24.603 2.144-1.078zm7.454-13.276l-7.647 3.845-.967-9.936c-.03-.296-.076-.633-.142-1.013-.065-.379-.143-.79-.235-1.233.588.671 1.117 1.211 1.585 1.62l7.406 6.717zm19.644-1.462l-13.338-18.649-2.525 1.806 13.338 18.649 2.525-1.806zm18.529-15.863l-1.789-1.898-7.22 6.803-13.935-14.79-2.259 2.13 15.724 16.687 9.479-8.932zm5.83-6.118c.16-.214.232-.439.22-.674-.012-.234-.073-.439-.183-.613l-3.177-5.015 6.117-8.272 5.726 1.567c.222.059.44.06.653.005.213-.054.402-.193.566-.416l1.427-1.93-23.886-6.26-1.874 2.534 12.985 21.004 1.427-1.93zm.662-15.211l-5.09 6.883-5.346-8.432c-.16-.25-.354-.53-.584-.839-.229-.309-.485-.64-.766-.995.827.334 1.543.578 2.145.731l9.641 2.652zm18.522-14.284c.547-1.157.892-2.254 1.033-3.29.142-1.036.1-1.988-.127-2.857-.226-.868-.625-1.634-1.195-2.3-.57-.664-1.295-1.204-2.172-1.62-1.293-.61-2.516-.717-3.672-.32-1.155.398-2.24 1.283-3.255 2.656.107-.752.117-1.446.03-2.084-.089-.637-.259-1.213-.511-1.728-.252-.514-.577-.963-.974-1.345-.398-.383-.852-.695-1.363-.936-.839-.397-1.66-.612-2.465-.644-.805-.033-1.58.138-2.322.513-.744.374-1.458.962-2.145 1.764-.686.803-1.33 1.84-1.932 3.113l-3.125 6.61 20.727 9.801 3.468-7.333zm-11.831-4.586l-1.751 3.703-7.073-3.344 1.798-3.804c.73-1.543 1.552-2.547 2.468-3.01.915-.464 1.98-.409 3.196.166.52.246.957.564 1.309.955.352.39.592.85.72 1.376.13.527.144 1.12.044 1.781-.1.66-.337 1.387-.711 2.177zm9.583 3.576l-2.12 4.484-7.218-3.413 2.113-4.47c.725-1.533 1.578-2.53 2.558-2.994.98-.462 2.005-.44 3.075.065.55.26 1.012.585 1.388.975.376.39.643.85.8 1.378.157.529.192 1.123.104 1.784-.088.66-.322 1.39-.7 2.191zm12.822-27.851l-2.517-.683-2.599 9.573-19.61-5.323-.813 2.996 22.127 6.006 3.412-12.57zm3.181-22.535l-2.516-.244-1.063 10.957-7.788-.756.861-8.87-2.42-.236-.861 8.87-7.58-.735 1.063-10.957-2.516-.244-1.365 14.062 22.82 2.215 1.365-14.062zm-.62-24.188l-9.732 1.56-1.488-9.29-2.497.4 1.489 9.29-7.915 1.267-1.742-10.869-2.496.4 2.235 13.95 22.64-3.628-.494-3.08zm-7.034-29.281c-.593-1.578-1.402-2.918-2.426-4.02-1.024-1.102-2.195-1.936-3.512-2.5-1.318-.565-2.744-.85-4.278-.854-1.534-.004-3.105.296-4.713.9-1.607.605-2.987 1.414-4.138 2.428-1.152 1.014-2.04 2.168-2.664 3.462-.625 1.295-.962 2.695-1.011 4.2-.05 1.506.222 3.048.815 4.625.593 1.578 1.403 2.914 2.43 4.01 1.028 1.095 2.202 1.924 3.525 2.487 1.323.562 2.751.846 4.285.85 1.535.005 3.106-.295 4.713-.9 1.608-.604 2.987-1.413 4.139-2.427 1.151-1.014 2.037-2.167 2.656-3.46.62-1.292.952-2.688.999-4.187.046-1.499-.227-3.037-.82-4.614zm-2.517.945c.432 1.149.632 2.264.6 3.347-.031 1.083-.284 2.093-.758 3.029-.475.936-1.166 1.78-2.074 2.532-.909.751-2.022 1.375-3.34 1.87-1.318.496-2.568.76-3.752.795-1.183.035-2.262-.144-3.235-.536-.974-.392-1.832-.984-2.574-1.776-.742-.792-1.329-1.762-1.76-2.91-.436-1.159-.635-2.28-.599-3.365.037-1.085.293-2.093.77-3.024.476-.931 1.17-1.773 2.084-2.527.913-.753 2.029-1.378 3.347-1.873 1.318-.496 2.566-.76 3.744-.793 1.179-.032 2.254.145 3.225.532.972.386 1.826.977 2.564 1.771.737.794 1.323 1.77 1.758 2.928zm-7.373-22.916l-8.061 5.153-1.267-1.982c-.23-.36-.355-.659-.376-.9-.02-.24.029-.504.147-.795l3.696-9.427c.225-.46.185-.929-.12-1.405l-1.482-2.319-4.068 10.539c-.199.481-.289.944-.27 1.388-.648-.637-1.327-1.143-2.035-1.52-.71-.375-1.43-.617-2.164-.724-.733-.108-1.465-.08-2.196.084-.731.163-1.438.463-2.121.9-.818.523-1.468 1.135-1.95 1.836-.483.7-.773 1.49-.87 2.369-.096.878.016 1.841.338 2.889.321 1.048.873 2.183 1.654 3.405l3.49 5.46 19.319-12.35-1.664-2.601zm-11.711 3.631l1.749 2.737-7.293 4.662-1.827-2.858c-.96-1.5-1.39-2.817-1.291-3.95.098-1.133.723-2.067 1.873-2.803.567-.362 1.147-.593 1.74-.694.594-.101 1.184-.064 1.771.112.587.175 1.158.494 1.713.956.555.462 1.076 1.075 1.565 1.838zm-15.568-32.468c-.609-.552-1.287-.954-2.036-1.208-.749-.254-1.502-.364-2.26-.33-.757.033-1.494.211-2.21.534-.717.322-1.35.788-1.902 1.396-.551.61-.954 1.288-1.208 2.037-.254.749-.362 1.503-.324 2.264.038.761.22 1.502.546 2.222.326.72.794 1.356 1.402 1.907.601.544 1.274.942 2.019 1.192.745.25 1.496.354 2.253.313.757-.041 1.495-.225 2.215-.551.72-.326 1.356-.794 1.908-1.403.551-.608.952-1.285 1.202-2.03.25-.745.357-1.494.32-2.247-.038-.754-.218-1.489-.54-2.205-.322-.717-.784-1.347-1.385-1.891zm-33.187-26.96l-3.784 9.1-8.687-3.611-.97 2.334 8.687 3.612-3.078 7.401-10.164-4.226-.97 2.335 13.045 5.423 8.802-21.17-2.881-1.198zm-22.173-8l-2.008 9.356-2.3-.494c-.416-.09-.718-.212-.903-.366-.185-.154-.339-.375-.463-.664l-4.1-9.258c-.169-.484-.53-.785-1.082-.904l-2.691-.577 4.628 10.305c.203.48.468.87.797 1.169-.908.012-1.745.138-2.511.377-.766.24-1.445.582-2.037 1.028-.592.445-1.087.985-1.485 1.62-.399.635-.683 1.348-.853 2.14-.203.95-.226 1.842-.067 2.678.159.836.516 1.598 1.072 2.284.557.687 1.32 1.285 2.291 1.793.971.508 2.166.915 3.584 1.22l6.336 1.36 4.812-22.418-3.02-.648zm-5.657 10.88l3.176.681-1.817 8.464-3.316-.712c-1.742-.374-2.98-.995-3.716-1.862-.736-.867-.96-1.968-.674-3.303.141-.657.384-1.232.73-1.725.346-.493.788-.886 1.325-1.18.538-.294 1.166-.475 1.885-.545.718-.069 1.52-.009 2.407.182zM136.578 0l-.073 2.527 11.003.318-.226 7.82-8.908-.257-.07 2.431 8.908.258-.22 7.612-11.004-.318-.073 2.527 14.122.409L150.7.408 136.578 0zm-23.662 2.236l.365 2.501 10.893-1.589 1.13 7.742-8.82 1.287.352 2.406 8.818-1.286 1.1 7.536-10.893 1.589.365 2.502 13.98-2.04-3.31-22.688-13.98 2.04zM91 8.118l.804 2.481 9.437-3.06 6.267 19.33 2.953-.957-7.072-21.81-12.39 4.016zm-7.855 3.03c-.235.127-.397.3-.485.517-.09.217-.121.428-.096.632l.737 5.891-9.058 4.878-4.513-3.858c-.176-.148-.372-.242-.588-.283-.216-.041-.446.004-.69.135l-2.113 1.138L85.28 36.04l2.775-1.494-2.798-24.534-2.113 1.138zm-7.08 13.48l7.537-4.058 1.245 9.906c.038.294.095.63.17 1.008.076.377.166.786.27 1.226-.606-.654-1.15-1.18-1.63-1.575l-7.592-6.507zm-18.651 1.66l10.54 12.48c.138.164.293.34.467.528.173.19.354.378.542.568l-21.273-4.63c-.253-.052-.47-.057-.651-.015-.182.041-.366.141-.553.3l-1.198 1.011 14.794 17.516 2.078-1.755L51.68 39.884c-.158-.187-.326-.377-.502-.57-.177-.193-.367-.385-.57-.576l21.295 4.633c.268.053.475.062.622.03.146-.034.325-.14.537-.319l1.223-1.032-14.794-17.516-2.078 1.755zM31.336 51.314c-1.16 1.489-1.913 2.948-2.257 4.378-.344 1.429-.375 2.848-.094 4.258l1.795-.143c.194-.024.344-.103.449-.238.105-.134.15-.322.135-.563-.036-.543-.035-1.053.005-1.529s.135-.95.286-1.42c.151-.471.362-.946.634-1.424.271-.478.617-.986 1.036-1.524.69-.884 1.492-1.583 2.408-2.1.917-.516 1.898-.816 2.944-.9 1.046-.083 2.137.057 3.273.422 1.136.365 2.267.987 3.394 1.866 1.094.853 1.956 1.785 2.586 2.798.631 1.013 1.027 2.048 1.188 3.108.162 1.059.095 2.12-.199 3.182-.294 1.063-.818 2.077-1.572 3.045-.42.538-.83.982-1.232 1.332-.401.35-.782.634-1.143.854-.36.22-.696.39-1.008.512-.312.122-.592.222-.841.298-.249.076-.46.144-.636.204-.175.06-.305.144-.39.253-.112.143-.17.274-.174.392-.005.119.012.24.05.365l.504 1.67c1.29-.197 2.517-.617 3.68-1.259 1.163-.641 2.263-1.627 3.3-2.956 1.049-1.346 1.783-2.751 2.202-4.217.42-1.465.533-2.915.34-4.35-.193-1.436-.685-2.817-1.476-4.145-.791-1.327-1.868-2.522-3.23-3.584-1.363-1.063-2.773-1.83-4.23-2.304-1.457-.474-2.883-.652-4.279-.537-1.395.116-2.731.528-4.008 1.237-1.276.709-2.423 1.715-3.44 3.019zm-16.623 26.87l2.249 1.156 5.03-9.792 6.96 3.576-4.073 7.927 2.163 1.111 4.073-7.927 6.774 3.48-5.03 9.792 2.248 1.155 6.456-12.567L21.17 65.617l-6.456 12.566zm-8.6 23.225l22.24 5.57.755-3.01-22.241-5.57-.754 3.01zm-2.549 13.874l16.282 1.327c.213.017.447.03.703.04.256.011.518.016.785.017L3.051 128.484c-.215.143-.372.294-.47.452-.099.158-.158.359-.178.603l-.127 1.563 22.852 1.861.22-2.71-16.186-1.319c-.244-.02-.497-.035-.758-.046-.262-.01-.532-.01-.811-.002l18.301-11.833c.227-.153.38-.293.46-.42.08-.127.13-.329.153-.605l.13-1.595-22.852-1.862-.22 2.711zM.388 164.67l5.481-6.706c.6.67 1.278 1.254 2.037 1.752.758.498 1.58.895 2.467 1.192.887.297 1.826.487 2.817.57.992.083 2.021.05 3.088-.098 1.701-.237 3.225-.723 4.571-1.46 1.346-.735 2.466-1.666 3.36-2.792.893-1.126 1.53-2.418 1.909-3.876.379-1.458.452-3.021.22-4.69-.232-1.67-.728-3.152-1.49-4.446-.761-1.294-1.725-2.36-2.892-3.2-1.166-.84-2.498-1.43-3.993-1.772-1.496-.341-3.095-.393-4.796-.157-1.7.236-3.224.722-4.57 1.459-1.347.736-2.464 1.667-3.352 2.792-.889 1.124-1.52 2.413-1.894 3.865-.375 1.452-.446 3.013-.214 4.682.098.708.245 1.38.441 2.014.196.635.431 1.24.705 1.817l-3.787 4.597c-.23.28-.378.574-.443.885-.064.31-.07.656-.017 1.036l.352 2.536zm5.411-13.255c-.168-1.215-.118-2.347.15-3.397.27-1.05.738-1.979 1.406-2.788.668-.809 1.528-1.48 2.58-2.014 1.05-.534 2.274-.898 3.668-1.091 1.395-.194 2.673-.178 3.835.048 1.163.227 2.175.638 3.039 1.234.864.596 1.57 1.362 2.12 2.298.55.936.91 2.011 1.079 3.226.17 1.226.118 2.364-.156 3.414-.274 1.05-.746 1.978-1.415 2.781-.669.804-1.532 1.473-2.588 2.008-1.057.534-2.282.898-3.677 1.092-1.394.194-2.67.177-3.827-.05-1.157-.227-2.167-.636-3.03-1.226-.863-.591-1.566-1.355-2.111-2.292-.545-.936-.902-2.017-1.073-3.243zm3.906 29.216c.494 1.319 1.159 2.425 1.995 3.32.835.894 1.778 1.564 2.827 2.008 1.049.445 2.177.666 3.383.664 1.207-.001 2.43-.234 3.668-.698l13.052-4.884-1.082-2.892-13.052 4.884c-.9.337-1.77.518-2.616.544-.844.025-1.627-.103-2.348-.386-.72-.282-1.361-.717-1.923-1.304-.561-.588-1.008-1.326-1.341-2.215-.333-.889-.479-1.743-.438-2.561.042-.818.241-1.57.6-2.257.357-.687.863-1.297 1.517-1.832.654-.536 1.43-.971 2.33-1.308l13.037-4.879-1.083-2.892-13.051 4.885c-1.24.463-2.314 1.09-3.225 1.881-.912.791-1.616 1.701-2.114 2.73-.497 1.03-.768 2.156-.81 3.379-.044 1.223.181 2.494.674 3.813zm9.386 21.336l19.9-11.388-1.541-2.694-19.9 11.388 1.541 2.694zm8.128 12.337l7.498-5.943 1.461 1.844c.265.334.42.62.465.856.044.237.023.506-.065.807l-2.723 9.753c-.178.48-.09.943.26 1.386l1.71 2.156 2.98-10.896c.15-.499.193-.968.13-1.409.708.568 1.434 1.004 2.178 1.306.743.302 1.485.47 2.225.502.74.033 1.466-.069 2.177-.306.71-.236 1.383-.606 2.019-1.11.76-.603 1.345-1.277 1.754-2.023.41-.747.618-1.561.625-2.445.007-.884-.202-1.83-.628-2.84-.426-1.01-1.09-2.084-1.99-3.22l-4.025-5.079-17.97 14.241 1.919 2.42zm11.284-4.798l-2.018-2.546 6.784-5.376 2.107 2.658c1.106 1.396 1.668 2.663 1.684 3.8.017 1.137-.51 2.13-1.58 2.977-.527.418-1.08.707-1.66.867-.581.16-1.172.184-1.774.068-.602-.115-1.202-.374-1.8-.777-.6-.404-1.18-.96-1.743-1.671zm13.66 31.35l1.665-1.902-8.285-7.247 5.151-5.89 6.708 5.868 1.601-1.83-6.708-5.868 5.015-5.732 8.285 7.248 1.665-1.903-10.634-9.302-15.096 17.257 10.634 9.302zm12.013 9.031c1.037.635 2.06 1.043 3.069 1.224 1.009.18 1.963.164 2.862-.048.9-.212 1.724-.604 2.475-1.176.751-.572 1.388-1.285 1.912-2.14.496-.81.78-1.574.852-2.293.072-.72.004-1.405-.203-2.057-.207-.652-.514-1.275-.92-1.868-.406-.593-.84-1.169-1.305-1.728-.464-.56-.918-1.104-1.364-1.634-.445-.529-.81-1.056-1.095-1.58-.285-.526-.451-1.05-.5-1.574-.048-.523.095-1.058.43-1.604.262-.427.583-.778.963-1.051.38-.274.807-.454 1.279-.54.471-.086.983-.07 1.536.05.552.12 1.124.36 1.715.723.627.384 1.114.789 1.46 1.214.347.425.62.827.82 1.205.2.379.354.708.464.988.11.28.242.468.396.563.146.089.285.127.418.115.133-.013.282-.062.447-.149l1.41-.862c-.271-1.067-.751-2.05-1.44-2.947-.689-.897-1.579-1.68-2.67-2.349-.973-.596-1.927-.974-2.861-1.134-.934-.16-1.81-.145-2.625.043-.816.188-1.556.523-2.22 1.004-.664.481-1.208 1.068-1.631 1.759-.53.864-.84 1.671-.931 2.422-.092.751-.039 1.456.158 2.115.197.658.5 1.282.909 1.87.409.589.85 1.156 1.322 1.702l1.384 1.599c.45.52.816 1.04 1.097 1.563.28.522.44 1.054.476 1.596.037.542-.125 1.108-.488 1.7-.328.536-.718.967-1.167 1.292-.45.325-.94.54-1.474.645-.533.105-1.099.093-1.696-.035s-1.209-.385-1.836-.77c-.755-.462-1.332-.956-1.73-1.48-.397-.526-.704-1.024-.922-1.495-.218-.472-.387-.885-.507-1.24s-.276-.591-.467-.708c-.127-.078-.264-.115-.41-.111-.147.004-.287.034-.421.09l-1.533.786c.257 1.234.766 2.4 1.526 3.497s1.772 2.033 3.036 2.808zm32.48 11.13c.786.239 1.571.313 2.357.223.785-.09 1.513-.313 2.184-.667.67-.354 1.26-.83 1.77-1.427.51-.597.885-1.289 1.124-2.075.239-.786.313-1.572.222-2.357-.09-.785-.315-1.514-.674-2.186-.359-.672-.84-1.264-1.442-1.776-.603-.512-1.297-.887-2.083-1.125-.776-.236-1.554-.308-2.334-.216s-1.504.318-2.17.679c-.668.36-1.257.842-1.769 1.445-.511.602-.887 1.296-1.125 2.082-.239.786-.312 1.57-.22 2.35s.315 1.503.67 2.168c.356.666.832 1.253 1.43 1.764.598.51 1.284.883 2.06 1.118z" transform="translate(-637 -240) translate(637 240)"/>
            </g>
        </g>
    </g>
</svg>
