<?xml version="1.0" encoding="UTF-8"?>
<svg width="225px" height="32px" viewBox="0 0 225 32" version="1.1" xmlns="http://www.w3.org/2000/svg" xmlns:xlink="http://www.w3.org/1999/xlink">
    <title>Logo on white</title>
    <g id="Page-1" stroke="none" stroke-width="1" fill="none" fill-rule="evenodd">
        <g id="DR---About" transform="translate(-149.000000, -55.000000)" fill="#000000">
            <g id="Logo-on-white" transform="translate(149.000000, 55.000000)">
                <g id="Group-16-Copy" transform="translate(39.000000, 4.000000)" fill-rule="nonzero">
                    <path d="M3.92498783,21.8480084 L3.92498783,12.8320933 C3.92498783,10.1185654 4.80887639,8.01776965 7.96141227,8.01776965 C9.22831921,8.01776965 10.2889855,8.45543543 10.9960963,9.53501103 C11.6518846,10.5797616 11.6730391,11.5698609 11.6737215,12.7433065 L11.6737442,21.8480084 L14.7378912,21.8480084 L14.7378912,12.8320933 C14.7378912,10.1769208 15.4450021,8.01776965 18.6270009,8.01776965 C21.632222,8.01776965 22.4866476,10.3228094 22.4866476,12.861271 L22.4866476,21.8480084 L25.5507947,21.8480084 L25.5507947,12.1026503 C25.5507947,7.93023649 23.2232215,5.24588636 18.8921675,5.24588636 C16.5056684,5.24588636 14.7673542,5.97532933 13.5004473,7.95941421 C12.6460217,6.15039565 10.3479114,5.24588636 8.4328195,5.24588636 C6.282024,5.24588636 5.10350591,5.85861846 3.74821012,7.43421527 L3.68928421,7.43421527 L3.68928421,5.68355214 L0.860840813,5.68355214 L0.860840813,21.8480084 L3.92498783,21.8480084 Z M36.1282304,22.2564964 C41.0780064,22.2564964 44.9376531,18.3175044 44.9376531,13.7074248 C44.9376531,8.92227893 40.9012287,5.24588636 36.1282304,5.24588636 C31.4141581,5.24588636 27.3188078,8.89310122 27.3188078,13.6490694 C27.3188078,18.4342153 31.3257693,22.2564964 36.1282304,22.2564964 Z M36.1282304,19.4846132 C32.9462316,19.4846132 30.3829548,16.8877962 30.3829548,13.7366025 C30.3829548,10.5854089 32.9462316,8.01776965 36.1282304,8.01776965 C39.3102293,8.01776965 41.8735061,10.5562312 41.8735061,13.7074248 C41.8735061,16.8586185 39.3396922,19.4846132 36.1282304,19.4846132 Z M49.7992762,21.8480084 L49.7992762,13.0363373 C49.7992762,10.3228094 51.0956461,8.01776965 54.1008672,8.01776965 C57.3417919,8.01776965 58.1667546,10.3228094 58.1667546,13.065515 L58.1667546,21.8480084 L61.2309016,21.8480084 L61.2309016,12.2777166 C61.2309016,10.8480084 60.995198,9.35994472 60.1996983,8.13448053 C58.9327913,6.15039565 56.7525329,5.24588636 54.4249597,5.24588636 C52.5393307,5.24588636 50.8304795,5.85861846 49.6519614,7.40503756 L49.5930355,7.40503756 L49.5930355,5.68355214 L46.7351292,5.68355214 L46.7351292,21.8480084 L49.7992762,21.8480084 Z M71.8083374,22.2564964 C76.7581133,22.2564964 80.6177601,18.3175044 80.6177601,13.7074248 C80.6177601,8.92227893 76.5813356,5.24588636 71.8083374,5.24588636 C67.0942651,5.24588636 62.9989147,8.89310122 62.9989147,13.6490694 C62.9989147,18.4342153 67.0058762,22.2564964 71.8083374,22.2564964 Z M71.8083374,19.4846132 C68.6263386,19.4846132 66.0630617,16.8877962 66.0630617,13.7366025 C66.0630617,10.5854089 68.6263386,8.01776965 71.8083374,8.01776965 C74.9903362,8.01776965 77.553613,10.5562312 77.553613,13.7074248 C77.553613,16.8586185 75.0197992,19.4846132 71.8083374,19.4846132 Z M89.9577519,22.2564964 C93.6995468,22.2564964 96.7931567,19.9806344 98.0011378,16.5084858 L94.5834353,16.5084858 C93.7290097,18.3758598 92.0496215,19.4846132 89.9577519,19.4846132 C86.6873642,19.4846132 84.6544205,16.800263 84.6544205,13.7366025 C84.6544205,10.5562312 86.6579012,8.01776965 90.0166778,8.01776965 C92.1969362,8.01776965 93.6995468,9.15570069 94.6128983,11.0522524 L98.0011378,11.0522524 C97.0877863,7.58010387 93.4933061,5.24588636 89.9872148,5.24588636 C85.1552907,5.24588636 81.5902735,9.00981209 81.5902735,13.7366025 C81.5902735,18.463393 85.0963648,22.2564964 89.9577519,22.2564964 Z M102.214576,21.8480084 L102.214576,13.0363373 C102.214576,10.3228094 103.510946,8.01776965 106.516167,8.01776965 C109.757092,8.01776965 110.582054,10.3228094 110.582054,13.065515 L110.582054,21.8480084 L113.646201,21.8480084 L113.646201,12.2777166 C113.646201,10.8480084 113.410498,9.35994472 112.614998,8.13448053 C111.348091,6.15039565 109.167833,5.24588636 106.840259,5.24588636 C105.013556,5.24588636 103.334168,5.82944074 102.273502,7.40503756 L102.214576,7.40503756 L102.214576,0.256496442 L99.1504289,0.256496442 L99.1504289,21.8480084 L102.214576,21.8480084 Z M119.273861,21.8480084 L119.273861,13.0071596 C119.273861,11.5482736 119.627417,9.68089962 121.071101,8.95145665 C121.66036,8.63050175 122.603175,8.36790228 123.280823,8.36790228 L123.280823,5.24588636 C121.630897,5.3042418 120.128287,5.74190758 119.126546,7.14243809 L119.06762,7.14243809 L119.06762,5.68355214 L116.209714,5.68355214 L116.209714,21.8480084 L119.273861,21.8480084 Z M132.061018,22.2564964 C137.010794,22.2564964 140.870441,18.3175044 140.870441,13.7074248 C140.870441,8.92227893 136.834017,5.24588636 132.061018,5.24588636 C127.346946,5.24588636 123.251596,8.89310122 123.251596,13.6490694 C123.251596,18.4342153 127.258557,22.2564964 132.061018,22.2564964 Z M132.061018,19.4846132 C128.87902,19.4846132 126.315743,16.8877962 126.315743,13.7366025 C126.315743,10.5854089 128.87902,8.01776965 132.061018,8.01776965 C135.243017,8.01776965 137.806294,10.5562312 137.806294,13.7074248 C137.806294,16.8586185 135.27248,19.4846132 132.061018,19.4846132 Z M145.761527,21.8480084 L145.761527,12.8320933 C145.761527,10.1185654 146.645416,8.01776965 149.797951,8.01776965 C151.064858,8.01776965 152.125525,8.45543543 152.832636,9.53501103 C153.510283,10.6145866 153.510283,11.6358068 153.510283,12.861271 L153.510283,21.8480084 L156.57443,21.8480084 L156.57443,12.8320933 C156.57443,10.1769208 157.281541,8.01776965 160.46354,8.01776965 C163.468761,8.01776965 164.323187,10.3228094 164.323187,12.861271 L164.323187,21.8480084 L167.387334,21.8480084 L167.387334,12.1026503 C167.387334,7.93023649 165.059761,5.24588636 160.728707,5.24588636 C158.342208,5.24588636 156.603893,5.97532933 155.336986,7.95941421 C154.482561,6.15039565 152.184451,5.24588636 150.269359,5.24588636 C148.118563,5.24588636 146.940045,5.85861846 145.584749,7.43421527 L145.525823,7.43421527 L145.525823,5.68355214 L142.69738,5.68355214 L142.69738,21.8480084 L145.761527,21.8480084 Z M177.493362,22.2564964 C181.05838,22.2564964 184.093064,20.0681675 185.330508,16.7710853 L182.266361,16.7710853 C181.382472,18.463393 179.526306,19.4846132 177.611214,19.4846132 C174.930086,19.4846132 172.867679,17.5880614 172.248957,15.0787776 L185.772452,15.0787776 C185.831378,14.5827564 185.860841,14.0575574 185.860841,13.5615362 C185.860841,9.00981209 182.177972,5.24588636 177.552288,5.24588636 C172.77929,5.24588636 169.18481,9.06816753 169.18481,13.7366025 C169.18481,18.259149 172.838216,22.2564964 177.493362,22.2564964 Z M182.796694,12.7445601 L172.248957,12.7445601 C172.425735,10.0893877 174.87116,8.01776965 177.522825,8.01776965 C180.174491,8.01776965 182.619916,10.0893877 182.796694,12.7445601 Z" id="monochrome"></path>
                </g>
                <path d="M16,0 C24.836556,0 32,7.163444 32,16 C32,24.836556 24.836556,32 16,32 C7.163444,32 0,24.836556 0,16 C0,7.163444 7.163444,0 16,0 Z M16.0010017,2.4615385 L16,9.84615385 C12.6013246,9.84615385 9.84615385,12.6013246 9.84615385,16 C9.84615385,19.3986754 12.6013246,22.1538462 16,22.1538462 L16,29.538 L16.3107135,29.5349662 C23.6442881,29.3698169 29.5384615,23.3732374 29.5384615,16 C29.5384615,8.52324807 23.4776272,2.46207985 16.0010017,2.4615385 Z M16,10 C19.3137085,10 22,12.6862915 22,16 C22,19.2383969 19.4344251,21.8775718 16.2249383,21.9958615 L16,22 L16,10 Z" id="Combined-Shape"></path>
            </g>
        </g>
    </g>
</svg>